<?xml version="1.0" encoding="utf-8"?>
<svg viewBox="0 0.004 40 40" width="40" height="40" xmlns="http://www.w3.org/2000/svg">
  <g id="5424b843-706c-4cfa-8fa9-37b3c60c4838" transform="matrix(0.099421, 0, 0, 0.087385, -0.501141, -0.861779)" stroke="none" fill="#047DAF">
    <g clip-rule="evenodd">
      <path d="M233.891 219.266c4.727-10.462-4.865-15.181-12.64-10.353-10.857 6.731-9.597 21.941-3.002 31.114 4.7 6.539 12.135 11.375 20.964 11.578 38.744.849 49.614-52.358 11.046-66.663-60.461-22.429-113.678 49.219-70.261 104.87 0 0-21.562-61.315 27.74-76.687 6.029-11.319 19.269-16.525 27.735-10.253 13.153 9.724-3.907 21.531-1.582 16.394z"/>
      <path d="M206.337 218.897c.238.296-4.569 9.4 5.789 24.265-1.369.286-34.794 39.203 17.526 87.083-43.644-26.016-52.44-58.67-48.306-79.239 4.681-23.317 24.869-32.263 24.991-32.109z"/>
      <path d="M216.575 248.765c.699-.267 7.913 8.156 20.441 8.791 0 0-26.374 49.783 44.992 93.656-101.692-32.915-76.968-98.054-65.433-102.447z"/>
      <path d="M242.93 257.775s9.547.371 19.675-5.535c0 0-38.466 65.78 60.594 105.266-82.844-14.381-93.461-69.322-80.269-99.731z"/>
      <path d="M325.289 238.679c1.297.163-11.519-7.662-27.762-4.358-15.271 3.104-33.895 16.419-36.857 43.785-4.331 39.924 42.446 70.835 79.33 77.405 26.249 4.682 49.7 18.023 57.127 27.391-26.211-45.035-104.844-44.522-117.719-92.605-7.069-26.408 14.554-55.688 45.881-51.618z"/>
      <path d="M324.689 263.222c-.256-.187-7.649-11.671-20.054-.206 0 0-8.322 9.832 2.562 16.771 6.071 4.388 15.97 3.673 21.909-.566 15.962-11.412 8.519-36.07-10.475-36.508-31.413-.726-43.879 36.257-27.909 59.326 24.609 35.504 71.675 33.932 98.521 65.211 0 0-1.18-34.995-27.639-44.631 0 0-43.607-14.308-42.927-35.814 0 0-12.023.467-18.503-7.305-10.312-12.397 4.449-25.421 11.524-25.469 9.897-.073 15.406 11.081 12.991 9.191zM240.931 177.274s-16.123-13.163-34.274-14.396c-35.789-2.45-67.84 38.41-64.459 74.24 2.039 21.604 16.483 42.23 28.05 48.979-23.55-32.838-9.683-71.598 2.981-85.588 23.559-26.032 47.163-26.585 67.702-23.235z"/>
      <path d="M251.094 179.742s-10.627-12.653-5.954-33.353c0 0-44.012-37.743-91.734 10.681 0 0-52.254 53.773-8.676 109.429-16.042-33.983-6.373-68.201 15.632-90.083 22.703-22.575 62.079-30.056 90.732 3.326z"/>
      <path d="M247.168 140.088s7.006-12.583 18.552-13.55c-48.037-72.16-222.461 51.542-118.88 163.424-40.578-50.154-31.576-115.496 19.213-151.08 21.592-15.13 54.832-19.125 81.115 1.206z"/>
      <path d="M272.138 125.153c.563.974 1.777 1.332 3.117 1.975 12.794 6.109 14.81 17.703 5.725 27.188 9.947-30.745-38.493-29.558-31.122 6.531 4.794 23.433 28.069 32.203 51.096 23.828 45.635-16.729 29.235-67.208-2.554-89.002-19.112-13.113-66.023-33.999-135.504 8.705 0 0-72.479 40.893-60.933 125.242 6.051 44.183 45.496 84.932 82.204 105.484 0 0-98.156-69.644-71.264-148.168 10.131-30.951 39.296-65.665 74.101-79.944 29.865-12.253 66.903-13.379 85.134 18.161z"/>
      <path d="M159.854 96.941c-79.42 59.913-91.876 154.416-2.818 229.165-87.478-31.522-95.706-157.725-37.383-226.451 0 0 34.795-13.029 9.926-30.852 0 0 10.542 11.909-.71 20.628-8.468 6.571-21.437 6.205-29.584-1.263-22.039-20.19 2.29-52.318 29-51.701 12.024.28 25.798 9.6 31.309 20.999 8.288 17.149.497 39.293.26 39.475z"/>
      <path d="M258.257 362.005c-3.787-4.193-111.996-11.119-154.711-69.564-33.689-46.094-40.175-121.68 8.807-192.714-3.961 1.681-13.043-3.753-12.352-4.3-38.066 34.517-49.547 90.518-43.462 139.876C73.74 374.957 261.933 366.086 258.257 362.005zM88.285 80.281s1.123 6.792 8.353 12.136c.998.122-7.401 6.042-16.867 18.5 3.983-13.093 7.217-30.782 8.514-30.636z"/>
      <path d="M28.465 45.735c2.41-23.03 26.542-24.095 39.644-8.73C78.963 49.714 81.36 73.798 65.79 105.29c-19.045 38.549-37.132 103.363-16.926 136.625 0 0-6.152-68.707 21.094-124.396C81.573 92.19 99.06 51.968 82.681 27.424 67.372 4.483 38.174 5.652 19.797 21.822 5.299 34.577-3.585 68.048 17.787 76.721 46.056 88.189 57.148 54.535 38.85 46.165c-2.659-1.225-6.245-1.083-10.385-.43z"/>
      <path d="M35.305 40.36c-.63.198 15.896-16.835 29.769.766 15.629 19.883 2.143 47.786-11.394 78.729-9.789 22.392-17.628 49.673-18.068 78.71 0 0-11.874-80.091 3.955-115.776 28.061-20.664 5.176-45.348-4.262-42.429z"/>
      <path d="M16.314 82.926S8.75 108.683 9.602 146.87c.822 37.004 9.6 85.948 37.97 117.804-20.009-53.001-30.671-125.416-14.26-179.263-9.547 2.501-17.305-2.738-16.998-2.485zM407.367 419.319c-46.398-73.416-170.682-38.541-226.646-56.23-12.861-3.107-20.887 10.077-.694 17.403 6.181 2.239 38.339 6.611 84.649 1.532 98.551-10.819 143.129 37.994 142.691 37.295z"/>
      <path d="M400.941 422.463s-57.858-40.082-167.215-5.047c-12.224 3.926-25.79 8.514-40.126 10.057-27.372 2.938-55.571-2.754-68.676-27.927-5.799-11.14-3.67-33.121 13.74-42.777 7.907-4.385 20.403-4.959 24.06 6.856 0 0 1.252 9-8.001 11.869-15.925 10.886-6.102 25.517 6.944 31.41 34.685 15.672 89.402-15.448 127.713-17.532 34.962-1.901 74.536 7.259 111.561 33.091z"/>
      <path d="M255.866 387.335s-54.642 8.735-76.831-1.447c-6.869-3.157-12.597-5.156-17.831-4.091-10.486 2.127-11.046 11.231-3.774 16.905 23.799 18.565 77.059-2.778 98.436-11.367zM390.327 424.828s-63.154-33.585-105.449-7.551c-15.87 9.782-24.813 30.748-5.09 45.518 0 0 20.649 14.487 39.972-6.56 11.556-16.395-8.957-29.828-22.352-17.351-3.613 3.363-6.087 8.183-1.492 13.977-24.249-14.428-5.594-31.365 19.955-34.418 26.544-3.173 63.444 2.061 74.456 6.385z"/>
      <path d="M299.489 432.172s12.947-6.13 21.786 1.353c0 0 14.988-9.824 34.589-7.569-9.574-7.611-56.602-5.481-56.375 6.216z"/>
    </g>
  </g>
</svg>